# xmcd
#
# Track frame offsets: 
#        150
#        19152
#        40912
#        54861
#        76190
#        90727
#        107916
#        123328
#
# Disc length: 1830 seconds
#
# Revision: 0
# Processed by: cddbd v1.5.2PL0 Copyright (c) Steve Scherf et al.
# Submitted via: ExactAudioCopy v0.99pb3
#
DISCID=59072408
DTITLE=Jeff Dearborn and The Contoocook Blues Society - Jeff Dearborn and 
DTITLE=The Contoocook Blues Society
DYEAR=2005
DGENRE=Blues
TTITLE0=Stinkin' Lincoln Blues
TTITLE1=Good Morning Little School Girl
TTITLE2=Blue Midnight
TTITLE3=It's Too Late Brother
TTITLE4=Short Dressed Women
TTITLE5=I Got Love If You Want It
TTITLE6=Fence Jumpin' Women
TTITLE7=John Henry
EXTD=
EXTT0=
EXTT1=
EXTT2=
EXTT3=
EXTT4=
EXTT5=
EXTT6=
EXTT7=
PLAYORDER=
